<?xml version="1.0" encoding="utf-8"?>
<!-- Generator: Adobe Illustrator 26.3.1, SVG Export Plug-In . SVG Version: 6.00 Build 0)  -->
<svg version="1.1" id="Layer_1" xmlns="http://www.w3.org/2000/svg" xmlns:xlink="http://www.w3.org/1999/xlink" x="0px" y="0px"
	 viewBox="0 0 459.5 495.4" style="enable-background:new 0 0 459.5 495.4;" xml:space="preserve">
<style type="text/css">
	.st0{fill:#003da6;}
</style>
<g>
	<g>
		<path class="st0" d="M42.2,415.7l-1.3-35.4h-0.6l-12,33.8H25l-12-33.8h-0.6L11,415.7H7.8l1.3-40.9h8.4l10.4,29.6h0.6L39,374.8h8.4
			l1.3,40.9H42.2z"/>
		<path class="st0" d="M55.6,395.6c0-11.7,9.1-21.8,20.5-21.8c11.7,0,20.5,8.8,20.5,21.1c0,11.7-9.1,21.8-20.5,21.8
			C64,416.7,55.6,408.2,55.6,395.6z M89.7,395.9c0-11.7-6.5-18.8-14-18.8c-7.5,0-13.6,6.5-13.6,17.9c0,11.7,6.5,18.8,14,18.8
			S89.7,407.3,89.7,395.9z"/>
		<path class="st0" d="M130,375.1h3.2v26.6c0,9.4-5.5,15.3-14.9,15.3c-9.1,0-14.6-5.2-14.6-15.9v-26h6.2v24.7
			c0,9.7,4.2,12.7,10.4,12.7s9.7-3.9,9.7-11.4C130,401.1,130,375.1,130,375.1z"/>
		<path class="st0" d="M167,416l-20.1-33.8h-0.3v33.5h-3.2v-40.6l6.5-0.6l20.1,33.8h0.3v-33.1h3.2v40.6L167,416z"/>
		<path class="st0" d="M193,415.7V378h-2.6c-4.2,0-7.5,0.3-10.1,1.3v-4.2h31.5v4.2c-2.6-1-5.8-1.3-10.1-1.3h-2.6v38H193V415.7z"/>
		<path class="st0" d="M237.5,415.7l-4.2-13.3h-14l-4.2,13.3h-3.2l12-37.4v-1.9l6.8-2.6L244,416h-6.5V415.7z M226.5,380.6h-0.3
			l-5.8,18.8h12L226.5,380.6z"/>
		<path class="st0" d="M250.2,415.7v-40.6h6.2V416h-6.2V415.7z"/>
		<path class="st0" d="M290.5,416L270,382.2h-0.3v33.5h-3.2v-40.6l6.5-0.6l20.1,33.8h0.3v-33.1h3.2v40.6L290.5,416z"/>
		<path class="st0" d="M329.8,416l-14-40.9h6.5l11.7,35.1h0.6l11.7-35.1h3.2l-14,40.9H329.8z"/>
		<path class="st0" d="M354.2,415.7v-40.6h6.2V416h-6.2V415.7z"/>
		<path class="st0" d="M370.4,415.7v-40.6h24v4.2c-2.6-1-5.2-1.3-11.4-1.3h-6.8v15.6h13v2.9h-13v16.2h6.8c5.8,0,8.4-0.6,11.4-1.3
			v4.2C394.5,415.7,370.4,415.7,370.4,415.7z"/>
		<path class="st0" d="M434.4,416l-9.4-26.3h-0.3l-9.1,26.3h-3.9L399,375.1h6.5l9.7,32.8h0.3l7.8-23.1l-3.6-9.7h6.5l11,32.8h0.3
			l10.1-32.8h3.2L438.3,416H434.4z"/>
	</g>
	<g id="XMLID_00000071554741726074416090000016194923475652242873_">
		<g id="XMLID_00000105394767367462315870000014630619607719631757_">
			<path id="XMLID_00000013179122813053735040000009562622785245100448_" class="st0" d="M305.8,267.9c18.8-8.1,29.6-24,30.5-44.5
				c-15.3,34.4-45.8,33.1-72.1,43.2c-25.3,9.7-31.5,26-33.1,34.1l-0.6,1c1.9-9.7,9.1-31.5,35.1-43.5c34.8-15.9,48.1-42.6,39.6-71.2
				c-3.2,39-32.8,44.8-55.2,64.7c-12.7,11.4-18.2,23.4-20.5,33.1v-14c2.9-13.6,9.4-29.6,24.4-44.5c37-37.4,42.2-77.3,19.2-109.5
				c12.7,51-16.9,66.6-36.4,102.7c-2.6,4.5-4.5,9.4-6.5,14c0.3-7.8,1-15.6,1.9-24.4c14.6-63,7.5-123.1-9.7-141.7
				C205,85.9,197.9,146,212.5,209c1,8.4,1.3,16.6,1.9,24.4c-1.6-4.5-3.9-9.1-6.5-14c-19.5-36.1-49.1-51.3-36.4-102.7
				c-23.1,32.2-17.9,72.1,19.2,109.5c14.9,14.9,21.4,30.9,24.4,44.5v14c-2.3-9.7-7.8-21.8-20.5-33.1c-21.8-19.8-51.3-25.3-54.6-64.7
				c-8.4,28.6,4.9,55.2,39.6,71.2c26,12,33.1,33.8,35.1,43.5l-0.6-1c-1.6-7.8-7.8-24.4-33.1-34.1c-26.3-10.1-56.9-8.8-72.1-43.2
				c1,20.5,11.4,36.1,30.5,44.5c-10.4,7.8-16.9,17.2-20.1,31.2c-5.2,21.1,8.8,43.9,28.6,49.7c7.8,2.3,16.2,1.3,23.1-3.2
				c7.1-4.2,14.3-14.3,16.6-22.4c1.6-6.8,1-14-2.6-20.1c-3.2-6.2-8.8-10.7-15.3-12.3c-11-3.2-24,6.5-25.7,18.5
				c-1.3,8.1,1.3,17.2,10.4,22.7c0,0-7.1-11-4.9-20.5c0.6-3.6,3.2-6.5,6.2-8.4s6.5-2.3,10.1-1.3c4.5,1.3,8.1,4.5,10.7,8.8
				c2.3,4.2,2.9,9.4,1.6,14c-1.6,6.2-7.8,14-13,17.2s-11.4,3.9-17.2,2.3c-7.5-2.3-14-7.5-17.9-14.6c-3.9-7.1-3.2-18.5-0.6-26.3
				c3.6-10.1,8.4-16.9,17.9-21.4c9.4-4.2,18.8-4.9,28.6-1.9c12.3,3.6,23.1,12,29.2,20.5c7.5,10.4,17.2,28.3,17.9,42.2l0,0l0,0l0,0
				l0,0c0.3-13.6,10.4-31.8,17.9-42.2c6.2-8.4,16.6-16.9,29.2-20.5c9.7-2.9,19.2-2.3,28.6,1.9c9.4,4.2,14.3,11,17.9,21.4
				c2.6,7.8,3.2,19.2-0.6,26.3s-10.4,12.3-17.9,14.6c-5.8,1.6-12,1-17.2-2.3c-5.2-3.2-11.4-11-13-17.2c-1.3-4.9-0.6-9.7,1.6-14
				s6.2-7.5,10.7-8.8c3.6-1,7.1-0.3,10.1,1.3c2.9,1.9,5.5,4.9,6.2,8.4c2.3,9.7-4.9,20.5-4.9,20.5c9.1-5.2,11.4-14.3,10.4-22.7
				c-1.6-12-14.6-21.8-25.7-18.5c-6.5,1.9-12,6.2-15.3,12.3c-3.2,6.2-4.2,13.3-2.6,20.1c2.3,8.4,9.4,18.2,16.6,22.4
				s15.3,5.5,23.1,3.2c19.8-5.8,33.8-28.6,28.6-49.7C322.7,284.8,316.2,275.7,305.8,267.9z"/>
		</g>
	</g>
</g>
</svg>
