<svg width="229" height="283" viewBox="0 0 229 283" fill="none" xmlns="http://www.w3.org/2000/svg">
<path d="M197.8 200.9C216.6 192.8 227.4 176.9 228.3 156.4C213 190.8 182.5 189.5 156.2 199.6C130.9 209.3 124.7 225.6 123.1 233.7L122.5 234.7C124.4 225 131.6 203.2 157.6 191.2C192.4 175.3 205.7 148.6 197.2 120C194 159 164.4 164.8 142 184.7C129.3 196.1 123.8 208.1 121.5 217.8V203.8C124.4 190.2 130.9 174.2 145.9 159.3C182.9 121.9 188.1 81.9999 165.1 49.7999C177.8 100.8 148.2 116.4 128.7 152.5C126.1 157 124.2 161.9 122.2 166.5C122.5 158.7 123.2 150.9 124.1 142.1C138.7 79.0999 131.6 18.9999 114.4 0.399902C97 18.8999 89.9 78.9999 104.5 142C105.5 150.4 105.8 158.6 106.4 166.4C104.8 161.9 102.5 157.3 99.9 152.4C80.4 116.3 50.8 101.1 63.5 49.6999C40.4 81.8999 45.6 121.8 82.7 159.2C97.6 174.1 104.1 190.1 107.1 203.7V217.7C104.8 208 99.3 195.9 86.6 184.6C64.8 164.8 35.3 159.3 32 119.9C23.6 148.5 36.9 175.1 71.6 191.1C97.6 203.1 104.7 224.9 106.7 234.6L106.1 233.6C104.5 225.8 98.3 209.2 73 199.5C46.7 189.4 16.1 190.7 0.900024 156.3C1.90002 176.8 12.3 192.4 31.4 200.8C21 208.6 14.5 218 11.3 232C6.10003 253.1 20.1 275.9 39.9 281.7C47.7 284 56.1 283 63 278.5C70.1 274.3 77.3 264.2 79.6 256.1C81.2 249.3 80.6 242.1 77 236C73.8 229.8 68.2 225.3 61.7 223.7C50.7 220.5 37.7 230.2 36 242.2C34.7 250.3 37.3 259.4 46.4 264.9C46.4 264.9 39.3 253.9 41.5 244.4C42.1 240.8 44.7 237.9 47.7 236C50.7 234.1 54.2 233.7 57.8 234.7C62.3 236 65.9 239.2 68.5 243.5C70.8 247.7 71.4 252.9 70.1 257.5C68.5 263.7 62.3 271.5 57.1 274.7C51.9 277.9 45.7 278.6 39.9 277C32.4 274.7 25.9 269.5 22 262.4C18.1 255.3 18.8 243.9 21.4 236.1C25 226 29.8 219.2 39.3 214.7C48.7 210.5 58.1 209.8 67.9 212.8C80.2 216.4 91 224.8 97.1 233.3C104.6 243.7 114.3 261.6 115 275.5C115.3 261.9 125.4 243.7 132.9 233.3C139.1 224.9 149.5 216.4 162.1 212.8C171.8 209.9 181.3 210.5 190.7 214.7C200.1 218.9 205 225.7 208.6 236.1C211.2 243.9 211.8 255.3 208 262.4C204.2 269.5 197.6 274.7 190.1 277C184.3 278.6 178.1 278 172.9 274.7C167.7 271.5 161.5 263.7 159.9 257.5C158.6 252.6 159.3 247.8 161.5 243.5C163.7 239.2 167.7 236 172.2 234.7C175.8 233.7 179.3 234.4 182.3 236C185.2 237.9 187.8 240.9 188.5 244.4C190.8 254.1 183.6 264.9 183.6 264.9C192.7 259.7 195 250.6 194 242.2C192.4 230.2 179.4 220.4 168.3 223.7C161.8 225.6 156.3 229.9 153 236C149.8 242.2 148.8 249.3 150.4 256.1C152.7 264.5 159.8 274.3 167 278.5C174.2 282.7 182.3 284 190.1 281.7C209.9 275.9 223.9 253.1 218.7 232C214.7 217.8 208.2 208.7 197.8 200.9Z" fill="#003DA6"/>
</svg>
