<svg width="443" height="350" viewBox="0 0 443 350" fill="none" xmlns="http://www.w3.org/2000/svg">
<path d="M304.7 200.5C323.5 192.4 334.3 176.5 335.2 156C319.9 190.4 289.4 189.1 263.1 199.2C237.8 208.9 231.6 225.2 230 233.3L229.4 234.3C231.3 224.6 238.5 202.8 264.5 190.8C299.3 174.9 312.6 148.2 304.1 119.6C300.9 158.6 271.3 164.4 248.9 184.3C236.2 195.7 230.7 207.7 228.4 217.4V203.4C231.3 189.8 237.8 173.8 252.8 158.9C289.8 121.5 295 81.6 272 49.4C284.7 100.4 255.1 116 235.6 152.1C233 156.6 231.1 161.5 229.1 166.1C229.4 158.3 230.1 150.5 231 141.7C245.6 78.7 238.5 18.6 221.3 0C203.9 18.5 196.8 78.6 211.4 141.6C212.4 150 212.7 158.2 213.3 166C211.7 161.5 209.4 156.9 206.8 152C187.3 115.9 157.7 100.7 170.4 49.3C147.3 81.5 152.5 121.4 189.6 158.8C204.5 173.7 211 189.7 214 203.3V217.3C211.7 207.6 206.2 195.5 193.5 184.2C171.7 164.4 142.2 158.9 138.9 119.5C130.5 148.1 143.8 174.7 178.5 190.7C204.5 202.7 211.6 224.5 213.6 234.2L213 233.2C211.4 225.4 205.2 208.8 179.9 199.1C153.6 189 123 190.3 107.8 155.9C108.8 176.4 119.2 192 138.3 200.4C127.9 208.2 121.4 217.6 118.2 231.6C113 252.7 127 275.5 146.8 281.3C154.6 283.6 163 282.6 169.9 278.1C177 273.9 184.2 263.8 186.5 255.7C188.1 248.9 187.5 241.7 183.9 235.6C180.7 229.4 175.1 224.9 168.6 223.3C157.6 220.1 144.6 229.8 142.9 241.8C141.6 249.9 144.2 259 153.3 264.5C153.3 264.5 146.2 253.5 148.4 244C149 240.4 151.6 237.5 154.6 235.6C157.6 233.7 161.1 233.3 164.7 234.3C169.2 235.6 172.8 238.8 175.4 243.1C177.7 247.3 178.3 252.5 177 257.1C175.4 263.3 169.2 271.1 164 274.3C158.8 277.5 152.6 278.2 146.8 276.6C139.3 274.3 132.8 269.1 128.9 262C125 254.9 125.7 243.5 128.3 235.7C131.9 225.6 136.7 218.8 146.2 214.3C155.6 210.1 165 209.4 174.8 212.4C187.1 216 197.9 224.4 204 232.9C211.5 243.3 221.2 261.2 221.9 275.1C222.2 261.5 232.3 243.3 239.8 232.9C246 224.5 256.4 216 269 212.4C278.7 209.5 288.2 210.1 297.6 214.3C307 218.5 311.9 225.3 315.5 235.7C318.1 243.5 318.7 254.9 314.9 262C311.1 269.1 304.5 274.3 297 276.6C291.2 278.2 285 277.6 279.8 274.3C274.6 271.1 268.4 263.3 266.8 257.1C265.5 252.2 266.2 247.4 268.4 243.1C270.6 238.8 274.6 235.6 279.1 234.3C282.7 233.3 286.2 234 289.2 235.6C292.1 237.5 294.7 240.5 295.4 244C297.7 253.7 290.5 264.5 290.5 264.5C299.6 259.3 301.9 250.2 300.9 241.8C299.3 229.8 286.3 220 275.2 223.3C268.7 225.2 263.2 229.5 259.9 235.6C256.7 241.8 255.7 248.9 257.3 255.7C259.6 264.1 266.7 273.9 273.9 278.1C281.1 282.3 289.2 283.6 297 281.3C316.8 275.5 330.8 252.7 325.6 231.6C321.6 217.4 315.1 208.3 304.7 200.5Z" fill="#003DA6"/>
<path d="M34.4 348.394L33.1 312.994H32.5L20.5 346.794H17.2L5.2 312.994H4.6L3.2 348.394H0L1.3 307.494H9.7L20.1 337.094H20.7L31.2 307.494H39.6L40.9 348.394H34.4Z" fill="#003DA6"/>
<path d="M47.8 328.294C47.8 316.594 56.9 306.494 68.3 306.494C80 306.494 88.8 315.294 88.8 327.594C88.8 339.294 79.7 349.394 68.3 349.394C56.2 349.394 47.8 340.894 47.8 328.294ZM81.9 328.594C81.9 316.894 75.4 309.794 67.9 309.794C60.4 309.794 54.3 316.294 54.3 327.694C54.3 339.394 60.8 346.494 68.3 346.494C75.8 346.494 81.9 339.994 81.9 328.594Z" fill="#003DA6"/>
<path d="M122.2 307.794H125.4V334.394C125.4 343.794 119.9 349.694 110.5 349.694C101.4 349.694 95.9 344.494 95.9 333.794V307.794H102.1V332.494C102.1 342.194 106.3 345.194 112.5 345.194C118.7 345.194 122.2 341.294 122.2 333.794V307.794Z" fill="#003DA6"/>
<path d="M159.2 348.694L139.1 314.894H138.8V348.394H135.6V307.794L142.1 307.194L162.2 340.994H162.5V307.894H165.7V348.494L159.2 348.694Z" fill="#003DA6"/>
<path d="M185.2 348.394V310.694H182.6C178.4 310.694 175.1 310.994 172.5 311.994V307.794H204V311.994C201.4 310.994 198.2 310.694 193.9 310.694H191.3V348.694H185.2V348.394Z" fill="#003DA6"/>
<path d="M229.7 348.394L225.5 335.094H211.5L207.3 348.394H204.1L216.1 310.994V309.094L222.9 306.494L236.2 348.694H229.7V348.394ZM218.7 313.294H218.4L212.6 332.094H224.6L218.7 313.294Z" fill="#003DA6"/>
<path d="M242.4 348.394V307.794H248.6V348.694H242.4V348.394Z" fill="#003DA6"/>
<path d="M282.7 348.694L262.2 314.894H261.9V348.394H258.7V307.794L265.2 307.194L285.3 340.994H285.6V307.894H288.8V348.494L282.7 348.694Z" fill="#003DA6"/>
<path d="M322 348.694L308 307.794H314.5L326.2 342.894H326.8L338.5 307.794H341.7L327.7 348.694H322Z" fill="#003DA6"/>
<path d="M346.4 348.394V307.794H352.6V348.694H346.4V348.394Z" fill="#003DA6"/>
<path d="M362.6 348.394V307.794H386.6V311.994C384 310.994 381.4 310.694 375.2 310.694H368.4V326.294H381.4V329.194H368.4V345.394H375.2C381 345.394 383.6 344.794 386.6 344.094V348.294C386.7 348.394 362.6 348.394 362.6 348.394Z" fill="#003DA6"/>
<path d="M426.6 348.694L417.2 322.394H416.9L407.8 348.694H403.9L391.2 307.794H397.7L407.4 340.594H407.7L415.5 317.494L411.9 307.794H418.4L429.4 340.594H429.7L439.8 307.794H443L430.5 348.694H426.6Z" fill="#003DA6"/>
</svg>
